<?xml version="1.0" encoding="utf-8"?>
<!-- Generator: Adobe Illustrator 26.2.1, SVG Export Plug-In . SVG Version: 6.00 Build 0)  -->
<svg version="1.1" id="Layer_1" xmlns="http://www.w3.org/2000/svg" xmlns:xlink="http://www.w3.org/1999/xlink" x="0px" y="0px"
	 viewBox="0 0 79.75 75.26" style="enable-background:new 0 0 79.75 75.26;" xml:space="preserve">
<style type="text/css">
	.st0{fill:#FFFFFF;}
	.st1{fill:#FFC907;}
</style>
<g>
	<g>
		<rect width="79.75" height="107.5"/>
		<g>
			<path class="st0" d="M15.27,85.98v-9.59h3.69v9.49c0,2.73,1.37,4.15,3.62,4.15c2.25,0,3.62-1.37,3.62-4.03v-9.61h3.69v9.47
				c0,5.08-2.85,7.58-7.36,7.58C18.03,93.44,15.27,90.92,15.27,85.98z"/>
			<path class="st0" d="M33.64,84.83v-0.05c0-4.77,3.6-8.68,8.75-8.68c3.16,0,5.06,1.05,6.62,2.59l-2.35,2.71
				c-1.29-1.17-2.61-1.89-4.29-1.89c-2.83,0-4.87,2.35-4.87,5.23v0.05c0,2.88,1.99,5.27,4.87,5.27c1.92,0,3.09-0.77,4.41-1.97
				l2.35,2.37c-1.73,1.85-3.64,3-6.88,3C37.3,93.46,33.64,89.65,33.64,84.83z"/>
			<path class="st0" d="M52.79,76.39h12.78v3.36h-9.08v3.57h8.01v3.36h-8.01v6.5h-3.69V76.39z"/>
		</g>
		<g>
			<path class="st1" d="M49.92,58.19c0-1.39-0.33-2.74-0.96-4.03c-1.2-2.41-5.02-4.17-8.72-5.86c-1.8-0.83-3.61-1.66-5.05-2.53
				c-6.88-4.17-9.15-9.27-9.84-12.82c-0.19-0.96-0.28-1.95-0.28-2.94c0-3.04,0.9-5.92,2.53-8.1c6.49-8.69,17.49-7.69,20.71-7.18
				c-3.18,0.14-11,1.55-14.76,9c-0.74,1.46-1.11,2.96-1.11,4.46c0,6.09,6.21,11.34,11.2,15.57c1.72,1.46,3.35,2.84,4.58,4.12
				c2.21,2.31,3.34,4.78,3.34,7.33c0,2.98-1.55,5.36-2.47,6.51C49.67,60.61,49.92,59.41,49.92,58.19"/>
			<path class="st1" d="M19.43,54.65c1.51,1.27,4.67,3.37,10.56,5.02c3.01,0.85,5.82,0.91,8.07,0.96c2.03,0.05,3.64,0.09,4.63,0.65
				c0.83,0.46,1.32,1.19,1.32,1.96l-0.06,0.44c-0.29,1.13-1.83,2.35-5.28,2.38C28.37,66.16,21.93,58.38,19.43,54.65"/>
			<path class="st1" d="M38.05,36.78c0,0,4.28-7.18,8.71-8.34c5.37-1.41,8.32,0.89,8.32,0.89l1.47-2.94l2.28,11.25
				c0,0,0.4,1.02-1.48,2.3c-1.88,1.28-2.01,1.02-2.01,1.02s-1.21-4.6-3.62-5.11c-2.41-0.51-2.41,2.68-2.28,3.7
				c0.14,1.02,2.19,5.21,5.64,3.45c3.76-1.92,5.5-4.34,5.5-4.34s0.54-1.28,1.08-0.89c0.54,0.38,2.55,2.56,2.55,2.56L63.4,53.74
				c0,0,0,1.66-2.28,2.3c-2.28,0.64-2.28,0.51-2.28,0.51l1.21-4.09h1.48L61.12,43c0,0-1.27,6.17-3.62,10.23
				c-2.82,4.85-7.38,8.82-7.38,8.82s2.89-3.44,2.43-7.64c-0.3-2.78-1.51-5.99-7.52-10.95C41.62,40.66,38.05,36.78,38.05,36.78"/>
			<path class="st1" d="M45.05,62.91c0-0.43-0.09-0.82-0.28-1.17c-0.67-1.29-2.51-1.99-5.46-2.1c-5.36-0.18-18.22-1.52-21.83-10.03
				c-1.16-2.73-1.74-5.71-1.74-8.85c0-3.58,0.77-6.51,1.28-8.09c-0.06,0.43-0.1,1.23-0.1,1.23c0,3.36,0.81,9.66,6.21,14.12
				c3.43,2.84,8.56,5.08,15.25,6.66c4.54,1.07,7.13,2.69,7.7,4.82l0.12,0.9c0,1.05-0.47,2.17-1.33,3.3
				C44.96,63.44,45.05,62.91,45.05,62.91"/>
			<path class="st1" d="M47.43,60.52c0-0.6-0.11-1.26-0.39-1.94c-0.98-2.3-3.71-3.95-8.13-4.91c-11.58-2.52-18.14-7.15-20.05-14.15
				c-0.47-1.73-0.68-3.35-0.68-4.86c0-9.6,8.44-14.76,11.31-16.23c-1.54,1.44-4.81,4.98-5.42,9.48c-0.11,0.81-0.17,1.61-0.17,2.4
				c0,5.71,2.94,10.72,8.95,15.25c1.9,1.43,4.45,2.59,6.91,3.7c3.55,1.6,6.9,3.12,8.21,5.33c0.66,1.1,0.9,2.18,0.9,3.16
				c0,2.06-1.06,3.74-1.78,4.65C47.27,61.91,47.43,61.27,47.43,60.52"/>
			<path class="st1" d="M47.09,21.14c-1.88,0-3.62-1.74-3.62-3.62c0,1.88-1.74,3.62-3.62,3.62c1.88,0,3.62,1.74,3.62,3.62
				C43.48,22.88,45.22,21.14,47.09,21.14"/>
		</g>
	</g>
	<g>
		<path d="M-23.64,129.04v-5.18h1.58v5.12c0,1.67,0.86,2.56,2.28,2.56c1.4,0,2.26-0.84,2.26-2.5v-5.18h1.58v5.11
			c0,2.69-1.52,4.04-3.87,4.04C-22.14,133-23.64,131.65-23.64,129.04z"/>
		<path d="M-11.83,123.85h1.47l4.82,6.23v-6.23h1.56v9H-5.3l-4.96-6.41v6.41h-1.56V123.85z"/>
		<path d="M0.36,123.85h1.58v9H0.36V123.85z"/>
		<path d="M5.5,123.85h1.75l2.71,6.92l2.7-6.92h1.71l-3.73,9.07h-1.4L5.5,123.85z"/>
		<path d="M17.85,123.85h6.68v1.42h-5.09v2.34h4.52v1.42h-4.52v2.42h5.16v1.42h-6.74V123.85z"/>
		<path d="M28.4,123.85h4.01c1.13,0,2.02,0.33,2.6,0.9c0.48,0.49,0.75,1.16,0.75,1.94v0.03c0,1.48-0.89,2.37-2.14,2.73l2.43,3.41
			h-1.88l-2.21-3.14h-1.98v3.14H28.4V123.85z M32.3,128.32c1.13,0,1.85-0.59,1.85-1.51v-0.03c0-0.96-0.69-1.49-1.87-1.49h-2.3v3.02
			H32.3z"/>
		<path d="M39.03,131.55l0.95-1.13c0.86,0.75,1.74,1.17,2.84,1.17c0.98,0,1.6-0.46,1.6-1.13v-0.03c0-0.64-0.36-0.99-2.03-1.38
			c-1.92-0.46-3-1.03-3-2.69v-0.03c0-1.54,1.29-2.61,3.07-2.61c1.31,0,2.35,0.4,3.27,1.13l-0.85,1.2c-0.81-0.6-1.62-0.93-2.44-0.93
			c-0.93,0-1.47,0.48-1.47,1.07v0.03c0,0.69,0.41,1,2.15,1.41c1.9,0.46,2.88,1.15,2.88,2.64v0.03c0,1.69-1.32,2.69-3.22,2.69
			C41.41,132.99,40.11,132.51,39.03,131.55z"/>
		<path d="M49.89,123.85h1.58v9h-1.58V123.85z"/>
		<path d="M58.02,125.32h-2.86v-1.47h7.31v1.47h-2.86v7.54h-1.6V125.32z"/>
		<path d="M68.72,129.31l-3.58-5.45h1.88l2.51,3.98l2.55-3.98h1.81l-3.58,5.42v3.59h-1.59V129.31z"/>
		<path d="M82.6,128.38v-0.03c0-2.53,1.96-4.66,4.72-4.66c2.77,0,4.7,2.1,4.7,4.63v0.03c0,2.53-1.96,4.66-4.72,4.66
			C84.53,133.01,82.6,130.92,82.6,128.38z M90.36,128.38v-0.03c0-1.75-1.27-3.2-3.06-3.2c-1.79,0-3.04,1.43-3.04,3.18v0.03
			c0,1.75,1.27,3.19,3.06,3.19C89.11,131.55,90.36,130.13,90.36,128.38z"/>
		<path d="M95.86,123.85h6.7v1.44h-5.12v2.46h4.54v1.44h-4.54v3.67h-1.58V123.85z"/>
		<path d="M-37.35,145.38v-0.03c0-2.56,1.92-4.66,4.64-4.66c1.66,0,2.66,0.58,3.52,1.4l-1.02,1.17c-0.72-0.67-1.49-1.12-2.52-1.12
			c-1.71,0-2.97,1.41-2.97,3.18v0.03c0,1.76,1.25,3.19,2.97,3.19c1.11,0,1.81-0.44,2.59-1.16l1.02,1.03
			c-0.94,0.98-1.97,1.59-3.65,1.59C-35.39,150.01-37.35,147.97-37.35,145.38z"/>
		<path d="M-25.53,140.85h6.68v1.41h-5.09v2.34h4.52v1.42h-4.52v2.42h5.16v1.42h-6.74V140.85z"/>
		<path d="M-14.98,140.85h1.47l4.82,6.23v-6.23h1.56v9h-1.33l-4.96-6.41v6.41h-1.56V140.85z"/>
		<path d="M-0.67,142.32h-2.86v-1.47h7.31v1.47H0.92v7.54h-1.6V142.32z"/>
		<path d="M7.38,140.85h4.01c1.13,0,2.02,0.33,2.6,0.9c0.48,0.49,0.75,1.16,0.75,1.94v0.03c0,1.48-0.89,2.37-2.14,2.73l2.43,3.41
			h-1.88l-2.21-3.14H8.96v3.14H7.38V140.85z M11.28,145.32c1.13,0,1.85-0.59,1.85-1.51v-0.03c0-0.96-0.69-1.49-1.87-1.49h-2.3v3.02
			H11.28z"/>
		<path d="M21.8,140.79h1.47l3.96,9.07h-1.67l-0.91-2.17h-4.26l-0.93,2.17h-1.62L21.8,140.79z M24.07,146.28l-1.56-3.6l-1.54,3.6
			H24.07z"/>
		<path d="M30.71,140.85h1.58v7.56h4.73v1.44h-6.32V140.85z"/>
		<path d="M46.39,140.85h6.7v1.44h-5.12v2.46h4.54v1.44h-4.54v3.67h-1.58V140.85z"/>
		<path d="M56.76,140.85h1.58v7.56h4.73v1.44h-6.32V140.85z"/>
		<path d="M65.74,145.38v-0.03c0-2.53,1.96-4.66,4.72-4.66c2.77,0,4.7,2.1,4.7,4.63v0.03c0,2.53-1.95,4.66-4.72,4.66
			C67.67,150.01,65.74,147.92,65.74,145.38z M73.49,145.38v-0.03c0-1.75-1.27-3.2-3.06-3.2s-3.04,1.43-3.04,3.18v0.03
			c0,1.75,1.27,3.19,3.06,3.19S73.49,147.13,73.49,145.38z"/>
		<path d="M79,140.85h4.01c1.13,0,2.02,0.33,2.6,0.9c0.48,0.49,0.75,1.16,0.75,1.94v0.03c0,1.48-0.89,2.37-2.14,2.73l2.43,3.41
			h-1.88l-2.21-3.14h-1.98v3.14H79V140.85z M82.9,145.32c1.13,0,1.85-0.59,1.85-1.51v-0.03c0-0.96-0.69-1.49-1.87-1.49h-2.3v3.02
			H82.9z"/>
		<path d="M90.32,140.85h1.58v9h-1.58V140.85z"/>
		<path d="M96.24,140.85h3.36c2.83,0,4.79,1.94,4.79,4.48v0.03c0,2.53-1.96,4.5-4.79,4.5h-3.36V140.85z M97.82,142.3v6.12h1.78
			c1.89,0,3.12-1.27,3.12-3.04v-0.03c0-1.76-1.23-3.06-3.12-3.06H97.82z"/>
		<path d="M110.79,140.79h1.47l3.96,9.07h-1.67l-0.91-2.17h-4.26l-0.93,2.17h-1.62L110.79,140.79z M113.05,146.28l-1.56-3.6
			l-1.54,3.6H113.05z"/>
	</g>
</g>
</svg>
